
    <svg
      xmlns="http://www.w3.org/2000/svg"
      xmlns:xlink="http://www.w3.org/1999/xlink"
      viewBox="-1 -1 2 2"
    >
      
    <style type="text/css">
      .plant {
        stroke: black;
        stroke-width: 0.0125;
      }
      .plant-stem {
        fill: none;
      }
      .plant-leaf {
        fill: green;
      }
    </style>
    
    <g
      class="plant"
      transform="
        rotate(0)
        translate(0, 0.2)
      "
    >
      <path class="plant-stem"
        d="
          M 0,0
          L 0,0.25
        "
      />
      
    <path class="plant-stem"
      d="
        M 0,0.225
        C 0,0.2 0,0.3 0.075,0.35
      "
    />
  
      
    <path class="plant-stem"
      d="
        M 0,0.225
        C 0,0.2 0,0.3 -0.075,0.35
      "
    />
  
      
    <path class="plant-leaf"
      d="
        M 0.075,0.35
        a 0.25,0.25 -45 0,0 0.2,0.15
        A 0.25,0.25 -45 0,0 0.075,0.35
      "
    />
  
      
    <path class="plant-leaf"
      d="
        M -0.075,0.35
        a 0.25,0.25 -45 0,0 -0.2,0.15
        A 0.25,0.25 -45 0,0 -0.075,0.35
      "
    />
  
    </g>
  

    <g
      class="plant"
      transform="
        rotate(45)
        translate(0, 0.2)
      "
    >
      <path class="plant-stem"
        d="
          M 0,0
          L 0,0.25
        "
      />
      
    <path class="plant-stem"
      d="
        M 0,0.225
        C 0,0.2 0,0.3 0.075,0.35
      "
    />
  
      
    <path class="plant-stem"
      d="
        M 0,0.225
        C 0,0.2 0,0.3 -0.075,0.35
      "
    />
  
      
    <path class="plant-leaf"
      d="
        M 0.075,0.35
        a 0.25,0.25 -45 0,0 0.2,0.15
        A 0.25,0.25 -45 0,0 0.075,0.35
      "
    />
  
      
    <path class="plant-leaf"
      d="
        M -0.075,0.35
        a 0.25,0.25 -45 0,0 -0.2,0.15
        A 0.25,0.25 -45 0,0 -0.075,0.35
      "
    />
  
    </g>
  

    <g
      class="plant"
      transform="
        rotate(90)
        translate(0, 0.2)
      "
    >
      <path class="plant-stem"
        d="
          M 0,0
          L 0,0.25
        "
      />
      
    <path class="plant-stem"
      d="
        M 0,0.225
        C 0,0.2 0,0.3 0.075,0.35
      "
    />
  
      
    <path class="plant-stem"
      d="
        M 0,0.225
        C 0,0.2 0,0.3 -0.075,0.35
      "
    />
  
      
    <path class="plant-leaf"
      d="
        M 0.075,0.35
        a 0.25,0.25 -45 0,0 0.2,0.15
        A 0.25,0.25 -45 0,0 0.075,0.35
      "
    />
  
      
    <path class="plant-leaf"
      d="
        M -0.075,0.35
        a 0.25,0.25 -45 0,0 -0.2,0.15
        A 0.25,0.25 -45 0,0 -0.075,0.35
      "
    />
  
    </g>
  

    <g
      class="plant"
      transform="
        rotate(135)
        translate(0, 0.2)
      "
    >
      <path class="plant-stem"
        d="
          M 0,0
          L 0,0.25
        "
      />
      
    <path class="plant-stem"
      d="
        M 0,0.225
        C 0,0.2 0,0.3 0.075,0.35
      "
    />
  
      
    <path class="plant-stem"
      d="
        M 0,0.225
        C 0,0.2 0,0.3 -0.075,0.35
      "
    />
  
      
    <path class="plant-leaf"
      d="
        M 0.075,0.35
        a 0.25,0.25 -45 0,0 0.2,0.15
        A 0.25,0.25 -45 0,0 0.075,0.35
      "
    />
  
      
    <path class="plant-leaf"
      d="
        M -0.075,0.35
        a 0.25,0.25 -45 0,0 -0.2,0.15
        A 0.25,0.25 -45 0,0 -0.075,0.35
      "
    />
  
    </g>
  

    <g
      class="plant"
      transform="
        rotate(180)
        translate(0, 0.2)
      "
    >
      <path class="plant-stem"
        d="
          M 0,0
          L 0,0.25
        "
      />
      
    <path class="plant-stem"
      d="
        M 0,0.225
        C 0,0.2 0,0.3 0.075,0.35
      "
    />
  
      
    <path class="plant-stem"
      d="
        M 0,0.225
        C 0,0.2 0,0.3 -0.075,0.35
      "
    />
  
      
    <path class="plant-leaf"
      d="
        M 0.075,0.35
        a 0.25,0.25 -45 0,0 0.2,0.15
        A 0.25,0.25 -45 0,0 0.075,0.35
      "
    />
  
      
    <path class="plant-leaf"
      d="
        M -0.075,0.35
        a 0.25,0.25 -45 0,0 -0.2,0.15
        A 0.25,0.25 -45 0,0 -0.075,0.35
      "
    />
  
    </g>
  

    <g
      class="plant"
      transform="
        rotate(225)
        translate(0, 0.2)
      "
    >
      <path class="plant-stem"
        d="
          M 0,0
          L 0,0.25
        "
      />
      
    <path class="plant-stem"
      d="
        M 0,0.225
        C 0,0.2 0,0.3 0.075,0.35
      "
    />
  
      
    <path class="plant-stem"
      d="
        M 0,0.225
        C 0,0.2 0,0.3 -0.075,0.35
      "
    />
  
      
    <path class="plant-leaf"
      d="
        M 0.075,0.35
        a 0.25,0.25 -45 0,0 0.2,0.15
        A 0.25,0.25 -45 0,0 0.075,0.35
      "
    />
  
      
    <path class="plant-leaf"
      d="
        M -0.075,0.35
        a 0.25,0.25 -45 0,0 -0.2,0.15
        A 0.25,0.25 -45 0,0 -0.075,0.35
      "
    />
  
    </g>
  

    <g
      class="plant"
      transform="
        rotate(270)
        translate(0, 0.2)
      "
    >
      <path class="plant-stem"
        d="
          M 0,0
          L 0,0.25
        "
      />
      
    <path class="plant-stem"
      d="
        M 0,0.225
        C 0,0.2 0,0.3 0.075,0.35
      "
    />
  
      
    <path class="plant-stem"
      d="
        M 0,0.225
        C 0,0.2 0,0.3 -0.075,0.35
      "
    />
  
      
    <path class="plant-leaf"
      d="
        M 0.075,0.35
        a 0.25,0.25 -45 0,0 0.2,0.15
        A 0.25,0.25 -45 0,0 0.075,0.35
      "
    />
  
      
    <path class="plant-leaf"
      d="
        M -0.075,0.35
        a 0.25,0.25 -45 0,0 -0.2,0.15
        A 0.25,0.25 -45 0,0 -0.075,0.35
      "
    />
  
    </g>
  

    <g
      class="plant"
      transform="
        rotate(315)
        translate(0, 0.2)
      "
    >
      <path class="plant-stem"
        d="
          M 0,0
          L 0,0.25
        "
      />
      
    <path class="plant-stem"
      d="
        M 0,0.225
        C 0,0.2 0,0.3 0.075,0.35
      "
    />
  
      
    <path class="plant-stem"
      d="
        M 0,0.225
        C 0,0.2 0,0.3 -0.075,0.35
      "
    />
  
      
    <path class="plant-leaf"
      d="
        M 0.075,0.35
        a 0.25,0.25 -45 0,0 0.2,0.15
        A 0.25,0.25 -45 0,0 0.075,0.35
      "
    />
  
      
    <path class="plant-leaf"
      d="
        M -0.075,0.35
        a 0.25,0.25 -45 0,0 -0.2,0.15
        A 0.25,0.25 -45 0,0 -0.075,0.35
      "
    />
  
    </g>
  
  
      
    <style type="text/css">
      .gear {
        stroke: black;
        stroke-width: 0.015;
      }
      .gear-tooth {
        fill: purple;
      }
    </style>
    <g class="gear">
      
    <g
      class="gear-tooth"
      transform="rotate(22.5)"
    >
      <rect x="-0.1" y="0.15" height="0.3" width="0.2" />
    </g>
  

    <g
      class="gear-tooth"
      transform="rotate(67.5)"
    >
      <rect x="-0.1" y="0.15" height="0.3" width="0.2" />
    </g>
  

    <g
      class="gear-tooth"
      transform="rotate(112.5)"
    >
      <rect x="-0.1" y="0.15" height="0.3" width="0.2" />
    </g>
  

    <g
      class="gear-tooth"
      transform="rotate(157.5)"
    >
      <rect x="-0.1" y="0.15" height="0.3" width="0.2" />
    </g>
  

    <g
      class="gear-tooth"
      transform="rotate(202.49999999999997)"
    >
      <rect x="-0.1" y="0.15" height="0.3" width="0.2" />
    </g>
  

    <g
      class="gear-tooth"
      transform="rotate(247.49999999999997)"
    >
      <rect x="-0.1" y="0.15" height="0.3" width="0.2" />
    </g>
  

    <g
      class="gear-tooth"
      transform="rotate(292.50000000000006)"
    >
      <rect x="-0.1" y="0.15" height="0.3" width="0.2" />
    </g>
  

    <g
      class="gear-tooth"
      transform="rotate(337.49999999999994)"
    >
      <rect x="-0.1" y="0.15" height="0.3" width="0.2" />
    </g>
  
    </g>
  
      
    <style type="text/css">
      .moon {
        stroke: black;
        stroke-width: 0.01;
      }
      .moon-front {
        fill: white;
      }
      .moon-back {
        fill: purple;
      }
    </style>
    
    <g class="moon">
      <path
        class="moon-back"
        d="M 4.286263797015736e-17,0.6
           a 0.04,0.04 0 1,1 0,0.2
           a 0.04,0.04 0 1,1 0,-0.2"
      />
      <path
        class="moon-front"
        d="M 4.286263797015736e-17,0.6
           a 0.04,0.04 0 1,1 0,0.2
           a 0.04,0.04 0 1,0 0,-0.2"
      />
    </g>
  

    <g class="moon">
      <path
        class="moon-back"
        d="M -0.4949747468305832,0.3949747468305833
           a 0.04,0.04 0 1,1 0,0.2
           a 0.04,0.04 0 1,1 0,-0.2"
      />
      <path
        class="moon-front"
        d="M -0.4949747468305832,0.3949747468305833
           a 0.02,0.04 0 1,1 0,0.2
           a 0.04,0.04 0 1,0 0,-0.2"
      />
    </g>
  

    <g class="moon">
      <path
        class="moon-back"
        d="M -0.7,-0.09999999999999992
           a 0.04,0.04 0 1,1 0,0.2
           a 0.04,0.04 0 1,1 0,-0.2"
      />
      <path
        class="moon-front"
        d="M -0.7,-0.09999999999999992
           a 0,0.04 0 1,1 0,0.2
           a 0.04,0.04 0 1,0 0,-0.2"
      />
    </g>
  

    <g class="moon">
      <path
        class="moon-back"
        d="M -0.49497474683058335,-0.5949747468305832
           a 0.04,0.04 0 1,1 0,0.2
           a 0.04,0.04 0 1,1 0,-0.2"
      />
      <path
        class="moon-front"
        d="M -0.49497474683058335,-0.5949747468305832
           a 0.02,0.04 0 1,0 0,0.2
           a 0.04,0.04 0 1,0 0,-0.2"
      />
    </g>
  

    <g class="moon">
      <path
        class="moon-back"
        d="M -1.2858791391047207e-16,-0.7999999999999999
           a 0.04,0.04 0 1,1 0,0.2
           a 0.04,0.04 0 1,1 0,-0.2"
      />
      <path
        class="moon-front"
        d="M -1.2858791391047207e-16,-0.7999999999999999
           a 0.04,0.04 0 1,0 0,0.2
           a 0.04,0.04 0 1,0 0,-0.2"
      />
    </g>
  

    <g class="moon">
      <path
        class="moon-back"
        d="M 0.4949747468305831,-0.5949747468305834
           a 0.04,0.04 0 1,1 0,0.2
           a 0.04,0.04 0 1,1 0,-0.2"
      />
      <path
        class="moon-front"
        d="M 0.4949747468305831,-0.5949747468305834
           a 0.02,0.04 0 1,1 0,0.2
           a 0.04,0.04 0 1,1 0,-0.2"
      />
    </g>
  

    <g class="moon">
      <path
        class="moon-back"
        d="M 0.7,-0.10000000000000017
           a 0.04,0.04 0 1,1 0,0.2
           a 0.04,0.04 0 1,1 0,-0.2"
      />
      <path
        class="moon-front"
        d="M 0.7,-0.10000000000000017
           a 0,0.04 0 1,1 0,0.2
           a 0.04,0.04 0 1,1 0,-0.2"
      />
    </g>
  

    <g class="moon">
      <path
        class="moon-back"
        d="M 0.49497474683058335,0.3949747468305831
           a 0.04,0.04 0 1,1 0,0.2
           a 0.04,0.04 0 1,1 0,-0.2"
      />
      <path
        class="moon-front"
        d="M 0.49497474683058335,0.3949747468305831
           a 0.02,0.04 0 1,0 0,0.2
           a 0.04,0.04 0 1,1 0,-0.2"
      />
    </g>
  
  
    </svg>
  
