
    <svg
      xmlns="http://www.w3.org/2000/svg"
      xmlns:xlink="http://www.w3.org/1999/xlink"
      viewBox="-1 -1 2 2"
    >
      
    <style type="text/css">
      .moon {
        stroke: black;
        stroke-width: 0.005;
      }
      .moon-front {
        fill: white;
      }
      .moon-back {
        fill: purple;
      }
    </style>
    
    <g class="moon">
      <path
        class="moon-back"
        d="M 4.286263797015736e-17,0.6499999999999999
           a 0.02,0.02 0 1,1 0,0.1
           a 0.02,0.02 0 1,1 0,-0.1"
      />
      <path
        class="moon-front"
        d="M 4.286263797015736e-17,0.6499999999999999
           a 0.02,0.02 0 1,1 0,0.1
           a 0.02,0.02 0 1,0 0,-0.1"
      />
    </g>
  

    <g class="moon">
      <path
        class="moon-back"
        d="M -0.4949747468305832,0.4449747468305833
           a 0.02,0.02 0 1,1 0,0.1
           a 0.02,0.02 0 1,1 0,-0.1"
      />
      <path
        class="moon-front"
        d="M -0.4949747468305832,0.4449747468305833
           a 0.01,0.02 0 1,1 0,0.1
           a 0.02,0.02 0 1,0 0,-0.1"
      />
    </g>
  

    <g class="moon">
      <path
        class="moon-back"
        d="M -0.7,-0.04999999999999992
           a 0.02,0.02 0 1,1 0,0.1
           a 0.02,0.02 0 1,1 0,-0.1"
      />
      <path
        class="moon-front"
        d="M -0.7,-0.04999999999999992
           a 0,0.02 0 1,1 0,0.1
           a 0.02,0.02 0 1,0 0,-0.1"
      />
    </g>
  

    <g class="moon">
      <path
        class="moon-back"
        d="M -0.49497474683058335,-0.5449747468305832
           a 0.02,0.02 0 1,1 0,0.1
           a 0.02,0.02 0 1,1 0,-0.1"
      />
      <path
        class="moon-front"
        d="M -0.49497474683058335,-0.5449747468305832
           a 0.01,0.02 0 1,0 0,0.1
           a 0.02,0.02 0 1,0 0,-0.1"
      />
    </g>
  

    <g class="moon">
      <path
        class="moon-back"
        d="M -1.2858791391047207e-16,-0.75
           a 0.02,0.02 0 1,1 0,0.1
           a 0.02,0.02 0 1,1 0,-0.1"
      />
      <path
        class="moon-front"
        d="M -1.2858791391047207e-16,-0.75
           a 0.02,0.02 0 1,0 0,0.1
           a 0.02,0.02 0 1,0 0,-0.1"
      />
    </g>
  

    <g class="moon">
      <path
        class="moon-back"
        d="M 0.4949747468305831,-0.5449747468305833
           a 0.02,0.02 0 1,1 0,0.1
           a 0.02,0.02 0 1,1 0,-0.1"
      />
      <path
        class="moon-front"
        d="M 0.4949747468305831,-0.5449747468305833
           a 0.01,0.02 0 1,1 0,0.1
           a 0.02,0.02 0 1,1 0,-0.1"
      />
    </g>
  

    <g class="moon">
      <path
        class="moon-back"
        d="M 0.7,-0.050000000000000176
           a 0.02,0.02 0 1,1 0,0.1
           a 0.02,0.02 0 1,1 0,-0.1"
      />
      <path
        class="moon-front"
        d="M 0.7,-0.050000000000000176
           a 0,0.02 0 1,1 0,0.1
           a 0.02,0.02 0 1,1 0,-0.1"
      />
    </g>
  

    <g class="moon">
      <path
        class="moon-back"
        d="M 0.49497474683058335,0.44497474683058313
           a 0.02,0.02 0 1,1 0,0.1
           a 0.02,0.02 0 1,1 0,-0.1"
      />
      <path
        class="moon-front"
        d="M 0.49497474683058335,0.44497474683058313
           a 0.01,0.02 0 1,0 0,0.1
           a 0.02,0.02 0 1,1 0,-0.1"
      />
    </g>
  
  
      
    <style type="text/css">
      .gear {
        stroke: black;
        stroke-width: 0.015;
      }
      .gear-tooth {
        fill: purple;
      }
    </style>
    <g class="gear">
      
    <g
      class="gear-tooth"
      transform="rotate(22.5)"
    >
      <rect x="-0.1" y="0.15" height="0.3" width="0.2" />
    </g>
  

    <g
      class="gear-tooth"
      transform="rotate(67.5)"
    >
      <rect x="-0.1" y="0.15" height="0.3" width="0.2" />
    </g>
  

    <g
      class="gear-tooth"
      transform="rotate(112.5)"
    >
      <rect x="-0.1" y="0.15" height="0.3" width="0.2" />
    </g>
  

    <g
      class="gear-tooth"
      transform="rotate(157.5)"
    >
      <rect x="-0.1" y="0.15" height="0.3" width="0.2" />
    </g>
  

    <g
      class="gear-tooth"
      transform="rotate(202.49999999999997)"
    >
      <rect x="-0.1" y="0.15" height="0.3" width="0.2" />
    </g>
  

    <g
      class="gear-tooth"
      transform="rotate(247.49999999999997)"
    >
      <rect x="-0.1" y="0.15" height="0.3" width="0.2" />
    </g>
  

    <g
      class="gear-tooth"
      transform="rotate(292.50000000000006)"
    >
      <rect x="-0.1" y="0.15" height="0.3" width="0.2" />
    </g>
  

    <g
      class="gear-tooth"
      transform="rotate(337.49999999999994)"
    >
      <rect x="-0.1" y="0.15" height="0.3" width="0.2" />
    </g>
  
    </g>
  
    </svg>
  
