<?xml version="1.0" encoding="UTF-8" standalone="no"?>
<!-- Created with Inkscape (http://www.inkscape.org/) -->

<svg
   xmlns:sketch="http://www.bohemiancoding.com/sketch/ns"
   xmlns:dc="http://purl.org/dc/elements/1.1/"
   xmlns:cc="http://creativecommons.org/ns#"
   xmlns:rdf="http://www.w3.org/1999/02/22-rdf-syntax-ns#"
   xmlns:svg="http://www.w3.org/2000/svg"
   xmlns="http://www.w3.org/2000/svg"
   xmlns:sodipodi="http://sodipodi.sourceforge.net/DTD/sodipodi-0.dtd"
   xmlns:inkscape="http://www.inkscape.org/namespaces/inkscape"
   width="128px"
   height="128px"
   viewBox="0 0 128 128"
   version="1.1"
   id="SVGRoot"
   inkscape:version="0.92.1 r15371"
   sodipodi:docname="solarpunk-icon.svg">
  <sodipodi:namedview
     id="base"
     pagecolor="#ffffff"
     bordercolor="#666666"
     borderopacity="1.0"
     inkscape:pageopacity="0.0"
     inkscape:pageshadow="2"
     inkscape:zoom="4.5796212"
     inkscape:cx="64.000001"
     inkscape:cy="64.000001"
     inkscape:document-units="px"
     inkscape:current-layer="layer1"
     showgrid="true"
     inkscape:window-width="1916"
     inkscape:window-height="1009"
     inkscape:window-x="0"
     inkscape:window-y="50"
     inkscape:window-maximized="0"
     inkscape:grid-bbox="true"
     showguides="false">
    <inkscape:grid
       type="xygrid"
       id="grid352" />
  </sodipodi:namedview>
  <defs
     id="defs10">
    <style
       id="style163">.cls-1{fill:#fff;}</style>
  </defs>
  <metadata
     id="metadata13">
    <rdf:RDF>
      <cc:Work
         rdf:about="">
        <dc:format>image/svg+xml</dc:format>
        <dc:type
           rdf:resource="http://purl.org/dc/dcmitype/StillImage" />
        <dc:title></dc:title>
      </cc:Work>
    </rdf:RDF>
  </metadata>
  <g
     id="layer1"
     inkscape:groupmode="layer"
     inkscape:label="Layer 1">
    <g
       id="g137"
       transform="matrix(1.4088777,0,0,1.4088777,32.988524,32.988524)">
      <g
         id="g119"
         sketch:type="MSPage"
         style="fill:none;fill-rule:evenodd;stroke:none;stroke-width:1">
        <path
           id="path117"
           sketch:type="MSShapeGroup"
           d="m 22.011475,34 c 6.627417,0 12,-5.372583 12,-12 0,-6.627417 -5.372583,-12 -12,-12 -6.627418,0 -12,5.372583 -12,12 0,6.627417 5.372582,12 12,12 z m -0.04932,-2 c 5.522848,0 10,-4.477152 10,-10 0,-5.522848 -4.477152,-10 -10,-10 -5.522848,0 -10,4.477152 -10,10 0,5.522848 4.477152,10 10,10 z M 19.01109,0 C 17.906733,0 17.011475,0.88670635 17.011475,1.9981013 V 8 h 2 V 2 h 6 v 6 h 2 V 1.9981013 C 27.011475,0.89458045 26.124041,0 25.01186,0 Z M 35.454345,4.3254191 C 34.673447,3.5445208 33.413408,3.5384738 32.627533,4.3243488 l -4.243984,4.2439832 1.414214,1.4142136 4.242641,-4.2426407 4.24264,4.2426407 -4.24264,4.2426404 1.414213,1.414214 4.243983,-4.243983 C 40.478908,10.61511 40.483961,9.3550355 39.69753,8.5686042 Z M 44.022949,19.01109 c 0,-1.104357 -0.886706,-1.999615 -1.998101,-1.999615 h -6.001899 v 2 h 6 v 6 h -6 v 2 h 6.001899 c 1.103521,0 1.998101,-0.887434 1.998101,-1.999615 z M 39.69753,35.454345 c 0.780898,-0.780898 0.786945,-2.040937 0.0011,-2.826812 l -4.243983,-4.243984 -1.414213,1.414214 4.24264,4.242641 -4.24264,4.24264 -4.242641,-4.24264 -1.414214,1.414213 4.243984,4.243983 c 0.780307,0.780308 2.040381,0.785361 2.826812,-0.0011 z m -13.373396,8.568604 c 0.379608,0 0.687341,-0.30384 0.687341,-0.682075 v -7.317925 h -2 v 6 h -6 v -6 h -2 v 7.317925 c 0,0.3767 0.310245,0.682075 0.68734,0.682075 z M 9.561394,40.69032 c 0.2325956,0.232596 0.609365,0.232938 0.837114,0.0052 L 15.6394,35.454617 14.225186,34.040404 9.9825456,38.283044 5.7399049,34.040404 9.9825456,29.797763 8.568332,28.383549 3.3274397,33.624442 c -0.2297294,0.229729 -0.226828,0.605096 0.00519,0.837113 z M 0,26.415876 c 0,0.32894 0.26617432,0.595599 0.5882591,0.595599 H 8 v -2 H 2 v -6 h 6 v -2 H 0.5882591 C 0.26337257,17.011475 0,17.27895 0,17.607073 Z M 3.3326293,9.561394 c -0.2325956,0.2325956 -0.2329379,0.609365 -0.00519,0.837114 L 8.568332,15.6394 9.9825456,14.225186 5.7399049,9.9825456 9.9825456,5.7399049 14.225186,9.9825456 15.6394,8.568332 10.398508,3.3274397 c -0.22973,-0.2297294 -0.6050964,-0.226828 -0.837114,0.00519 z m 0,0"
           inkscape:connector-curvature="0"
           style="fill:#000000" />
      </g>
    </g>
    <g
       id="g161"
       transform="matrix(0.20161235,0,0,0.20161235,9.215728,73.045947)">
      <g
         id="g143"
         data-name="Livello 9">
        <path
           id="path141"
           d="M 50,3.89 A 46.11,46.11 0 1 0 96.11,50 46.1,46.1 0 0 0 50,3.89 Z m 0,88.28 V 7.82 a 42.18,42.18 0 0 1 0,84.35 z"
           inkscape:connector-curvature="0" />
      </g>
    </g>
    <g
       id="g194"
       transform="matrix(0.20161235,0,0,0.20161235,35.215728,98.62304)">
      <g
         id="g175"
         data-name="Livello 9">
        <path
           id="path169"
           d="m 29,13.41 q -1.77,1 -3.42,2.19 A 40.49,40.49 0 0 1 29,13.41 Z"
           inkscape:connector-curvature="0" />
        <path
           id="path171"
           d="m 29,13.41 q -1.77,1 -3.42,2.19 A 40.49,40.49 0 0 1 29,13.41 Z"
           class="cls-1"
           inkscape:connector-curvature="0"
           style="fill:#ffffff" />
        <path
           id="path173"
           d="M 50,3.89 A 46.11,46.11 0 1 0 96.11,50 46.1,46.1 0 0 0 50,3.89 Z m -21,9.52 q -1.77,1 -3.42,2.19 A 40.49,40.49 0 0 1 29,13.41 Z M 59,91.2 A 42.18,42.18 0 0 1 59,8.79 42.18,42.18 0 0 1 59,91.2 Z"
           inkscape:connector-curvature="0" />
      </g>
    </g>
    <g
       id="g218"
       transform="matrix(0.20161235,0,0,0.20161235,35.264306,9.2137115)">
      <g
         id="g200"
         data-name="Livello 9">
        <circle
           id="circle198"
           r="46.099998"
           cy="50"
           cx="50" />
      </g>
    </g>
    <g
       id="g242"
       transform="matrix(0.20161235,0,0,0.20161235,9.215728,35.215728)">
      <g
         id="g224"
         data-name="Livello 9">
        <path
           id="path222"
           d="M 50,3.89 A 46.11,46.11 0 1 0 96.11,50 46.1,46.1 0 0 0 50,3.89 Z m 0,88.28 a 41.71,41.71 0 0 1 -9,-1 42.18,42.18 0 0 0 0,-82.38 41.71,41.71 0 0 1 9,-1 42.18,42.18 0 0 1 0,84.35 z"
           inkscape:connector-curvature="0" />
      </g>
    </g>
    <g
       id="g266"
       transform="matrix(0.20161235,0,0,0.20161235,98.62304,35.264306)">
      <g
         id="g248"
         data-name="Livello 9">
        <path
           id="path246"
           d="M 50,3.89 A 46.11,46.11 0 1 0 96.11,50 46.1,46.1 0 0 0 50,3.89 Z m 0,88.28 A 42.18,42.18 0 0 1 50,7.82 Z"
           inkscape:connector-curvature="0" />
      </g>
    </g>
    <g
       id="g290"
       transform="matrix(0.20161235,0,0,0.20161235,72.62304,9.2157282)">
      <g
         id="g272"
         data-name="Livello 9">
        <path
           id="path270"
           d="M 50,3.89 A 46.11,46.11 0 1 0 96.11,50 46.1,46.1 0 0 0 50,3.89 Z m 9,87.31 a 41.71,41.71 0 0 1 -9,1 42.19,42.19 0 0 1 0,-84.38 41.71,41.71 0 0 1 9,1 42.18,42.18 0 0 0 0,82.38 z"
           inkscape:connector-curvature="0" />
      </g>
    </g>
    <g
       id="g326"
       transform="matrix(0.20161235,0,0,0.20161235,98.62304,72.62304)">
      <g
         id="g304"
         data-name="Livello 9">
        <path
           id="path294"
           d="m 79.82,20.17 a 41.47,41.47 0 0 1 4,4.59 42.58,42.58 0 0 0 -4,-4.59 z"
           inkscape:connector-curvature="0" />
        <path
           id="path296"
           d="M 84.4,25.58 A 40.55,40.55 0 0 1 86.59,29 Q 85.57,27.23 84.4,25.58 Z"
           inkscape:connector-curvature="0" />
        <path
           id="path298"
           d="M 50,3.89 A 46.11,46.11 0 1 0 96.11,50 46.1,46.1 0 0 0 50,3.89 Z M 41,91.2 A 42.18,42.18 0 0 1 41,8.79 42.18,42.18 0 0 1 41,91.2 Z M 81.89,22.39 c 0.67,0.77 1.3,1.55 1.91,2.37 -0.61,-0.82 -1.25,-1.6 -1.91,-2.37 z m 4.7,6.61 q -1,-1.77 -2.19,-3.42 A 40.55,40.55 0 0 1 86.59,29 Z"
           inkscape:connector-curvature="0" />
        <path
           id="path300"
           d="m 79.82,20.17 a 41.47,41.47 0 0 1 4,4.59 42.58,42.58 0 0 0 -4,-4.59 z"
           inkscape:connector-curvature="0" />
        <path
           id="path302"
           d="M 84.4,25.58 A 40.55,40.55 0 0 1 86.59,29 Q 85.57,27.23 84.4,25.58 Z"
           inkscape:connector-curvature="0" />
      </g>
    </g>
    <g
       id="g350"
       transform="matrix(0.20161235,0,0,0.20161235,72.574459,98.62304)">
      <g
         id="g332"
         data-name="Livello 9">
        <path
           id="path330"
           d="M 50,3.89 A 46.11,46.11 0 1 0 96.11,50 46.1,46.1 0 0 0 50,3.89 Z m 0,88.28 A 42.18,42.18 0 1 1 92.18,50 42.17,42.17 0 0 1 50,92.17 Z"
           inkscape:connector-curvature="0" />
      </g>
    </g>
    <g
       id="g423"
       transform="translate(28.865676,-0.48087726)">
      <g
         id="g579"
         transform="translate(-4.6917792,-36.04544)">
        <path
           id="path562"
           d="m 37.06771,55.646309 c -0.175807,-0.424437 -0.666916,-0.62786 -1.091352,-0.452053 -5.286167,2.189602 -7.865612,8.185424 -5.846333,13.496935 l -0.474657,1.145921 c -0.587669,1.418759 -0.879898,2.895963 -0.854082,4.377046 -1.02903,-1.065538 -2.280207,-1.903443 -3.698966,-2.491112 L 23.956399,71.24839 c -2.366546,-5.167668 -8.39159,-7.599394 -13.677757,-5.409792 -0.4244371,0.175808 -0.6278597,0.666916 -0.4520531,1.091353 2.1896021,5.286167 8.1854241,7.865613 13.4969351,5.846334 l 1.145921,0.474656 c 2.346409,0.971914 4.199437,2.826273 5.190352,5.218553 l 2.605147,6.289381 c 0.175808,0.424437 0.666917,0.62786 1.091354,0.452053 0.424436,-0.175808 0.62786,-0.666916 0.452053,-1.091353 l -2.605147,-6.289381 c -0.974933,-2.353695 -0.975873,-4.975213 -0.01994,-7.360207 l 0.474655,-1.145921 c 5.16767,-2.366546 7.599394,-8.39159 5.409791,-13.677757 z M 11.744213,67.084957 c 4.056926,-1.22838 8.422339,0.579833 10.422423,4.317109 -4.056927,1.22838 -8.422339,-0.579833 -10.422423,-4.317109 z m 19.760031,0.449345 c -1.228381,-4.056926 0.579832,-8.422339 4.317107,-10.422422 1.228381,4.056926 -0.579831,8.422338 -4.317107,10.422422 z"
           inkscape:connector-curvature="0"
           style="stroke-width:0.41764274" />
        <path
           id="path562-3"
           d="m 6.2259945,70.606336 c -0.424437,-0.175808 -0.915545,0.02762 -1.091352,0.452053 -2.189602,5.286167 0.226141,11.349796 5.4097915,13.677756 l 0.474656,1.145922 c 0.587669,1.418758 1.425573,2.669936 2.491111,3.698966 -1.481083,-0.02581 -2.958287,0.266412 -4.3770455,0.854081 l -1.145921,0.474656 c -5.327494,-1.980692 -11.307333,0.560168 -13.496935,5.846335 -0.175807,0.424437 0.02762,0.915544 0.452053,1.091352 5.28616705,2.189603 11.349797,-0.22614 13.677757,-5.409791 l 1.145921,-0.474656 c 2.3464085,-0.971915 4.9679265,-0.970974 7.3602065,0.01994 l 6.289381,2.605146 c 0.424438,0.175808 0.915546,-0.02762 1.091354,-0.452054 0.175806,-0.424436 -0.02762,-0.915544 -0.452054,-1.091352 L 17.765537,90.439543 C 15.411842,89.464611 13.557484,87.611582 12.546985,85.24919 L 12.072329,84.10327 C 14.053022,78.775776 11.512161,72.795938 6.2259945,70.606336 Z m -9.818071,25.994762 c 2.000084,-3.737275 6.365497,-5.545489 10.422423,-4.317109 -2.000085,3.737277 -6.36549695,5.54549 -10.422423,4.317109 z M 10.69811,82.946381 C 6.9608335,80.946298 5.1526205,76.580885 6.3810005,72.52396 10.118278,74.524044 11.92649,78.889455 10.69811,82.946381 Z"
           inkscape:connector-curvature="0"
           style="stroke-width:0.41764274" />
        <path
           id="path562-6"
           d="m -4.9516261,103.40486 c -0.42444,0.17582 -0.62785,0.66692 -0.45205,1.09135 2.1896,5.28617 8.18542,7.86562 13.49694,5.84633 l 1.14591,0.47467 c 1.4187591,0.58767 2.8959791,0.87989 4.3770591,0.85407 -1.06554,1.02903 -1.90345,2.28021 -2.49112,3.69897 l -0.47465,1.14592 c -5.1676691,2.36655 -7.5993991,8.3916 -5.4097891,13.67776 0.1758,0.42445 0.6669,0.62788 1.09134,0.45205 5.2861691,-2.18959 7.8656091,-8.18541 5.8463391,-13.49692 l 0.47465,-1.14593 c 0.97192,-2.34641 2.82627,-4.19943 5.21857,-5.19036 l 6.28937,-2.60514 c 0.42444,-0.1758 0.62786,-0.66691 0.45206,-1.09136 -0.17582,-0.42442 -0.66691,-0.62787 -1.09137,-0.45204 l -6.28937,2.60515 c -2.3537,0.97493 -4.97521,0.97587 -7.3602097,0.0199 l -1.1459194,-0.47466 c -2.36655,-5.16767 -8.39158991,-7.59939 -13.67776,-5.40978 z m 11.43865,25.32351 c -1.22838,-4.05693 0.57984,-8.42234 4.3171091,-10.42243 1.22838,4.05692 -0.57983,8.42233 -4.3171091,10.42243 z m 0.44935,-19.76004 c -4.05693,1.22838 -8.42234,-0.57984 -10.42243,-4.3171 4.05693006,-1.22838 8.42234,0.57982 10.42243,4.3171 z"
           inkscape:connector-curvature="0"
           style="stroke-width:0.41764274" />
        <path
           id="path562-6-7"
           d="m 9.9173553,134.19377 c -0.1758036,0.42445 0.02763,0.91554 0.4520487,1.09134 5.286175,2.18962 11.349808,-0.22612 13.677758,-5.4098 l 1.145923,-0.47463 c 1.418765,-0.58767 2.669947,-1.42559 3.698972,-2.49113 -0.02582,1.48108 0.266411,2.95829 0.854078,4.37705 l 0.474658,1.14592 c -1.980686,5.3275 0.560173,11.30735 5.84634,13.49694 0.424441,0.17582 0.915542,-0.0276 1.091342,-0.45205 2.189607,-5.28616 -0.226137,-11.34978 -5.409785,-13.67775 l -0.474657,-1.14593 c -0.971917,-2.34641 -0.97097,-4.96791 0.01994,-7.36022 l 2.605148,-6.28937 c 0.175812,-0.42443 -0.02762,-0.91554 -0.452056,-1.09136 -0.424429,-0.17579 -0.915548,0.0276 -1.091353,0.45208 l -2.605135,6.28937 c -0.974942,2.3537 -2.827964,4.20805 -5.190389,5.21853 l -1.145919,0.47465 c -5.327498,-1.98069 -11.307332,0.56017 -13.4969327,5.84635 z m 25.9947707,9.81808 c -3.737276,-2.0001 -5.54549,-6.36551 -4.317113,-10.42243 3.737272,2.00008 5.545482,6.36549 4.317113,10.42243 z m -13.654718,-14.2902 c -2.00009,3.73728 -6.365508,5.54549 -10.422429,4.31712 2.000095,-3.73728 6.365496,-5.5455 10.422429,-4.31712 z"
           inkscape:connector-curvature="0"
           style="stroke-width:0.41764274" />
        <path
           id="path562-6-5"
           d="m 42.404967,145.33239 c 0.17582,0.42445 0.6669,0.62788 1.09135,0.45205 5.28617,-2.18959 7.86562,-8.18541 5.84632,-13.49693 l 0.47468,-1.14591 c 0.58767,-1.41876 0.87989,-2.89598 0.85408,-4.37707 1.02904,1.06553 2.2802,1.90345 3.69896,2.49112 l 1.14591,0.47466 c 2.36656,5.16767 8.39162,7.59939 13.67777,5.40979 0.42446,-0.17581 0.62788,-0.66691 0.45206,-1.09135 -2.1896,-5.28616 -8.18541,-7.8656 -13.49693,-5.84633 l -1.14593,-0.47465 c -2.34641,-0.97192 -4.19943,-2.82627 -5.19039,-5.21854 l -2.60514,-6.28937 c -0.17581,-0.42443 -0.6669,-0.62787 -1.09136,-0.45206 -0.42442,0.17582 -0.62787,0.66692 -0.45204,1.09137 l 2.60515,6.28937 c 0.97492,2.3537 0.97587,4.97521 0.0199,7.36022 l -0.47465,1.14591 c -5.16768,2.36656 -7.59939,8.39159 -5.40978,13.67777 z m 25.32351,-11.43864 c -4.05694,1.22837 -8.42235,-0.57984 -10.42244,-4.31711 4.05694,-1.22838 8.42235,0.57983 10.42244,4.31711 z m -19.76004,-0.44935 c 1.22838,4.05693 -0.57984,8.42234 -4.3171,10.42243 -1.22838,-4.05693 0.57982,-8.42234 4.3171,-10.42243 z"
           inkscape:connector-curvature="0"
           style="stroke-width:0.41764274" />
        <path
           id="path562-6-3"
           d="m 73.285651,130.24504 c 0.42445,0.17582 0.91554,-0.0276 1.09134,-0.45205 2.18962,-5.28616 -0.22612,-11.34979 -5.40979,-13.67774 l -0.47464,-1.14593 c -0.58767,-1.41876 -1.42559,-2.66994 -2.49112,-3.69897 1.48107,0.0258 2.95828,-0.26642 4.37704,-0.85409 l 1.14593,-0.47464 c 5.32747,1.98069 11.30735,-0.56018 13.49693,-5.84634 0.17582,-0.42445 -0.0276,-0.91556 -0.45204,-1.09136 -5.28617,-2.1896 -11.34979,0.22614 -13.67776,5.40981 l -1.14593,0.47464 c -2.34641,0.97191 -4.96791,0.97097 -7.36021,-0.0199 l -6.28937,-2.60514 c -0.42445,-0.17581 -0.91555,0.0276 -1.09136,0.45205 -0.1758,0.42443 0.0276,0.91555 0.45207,1.09136 l 6.28938,2.60513 c 2.3537,0.97494 4.20804,2.82797 5.21852,5.19038 l 0.47467,1.14593 c -1.98071,5.3275 0.56016,11.30732 5.84634,13.49693 z m 9.81808,-25.99476 c -2.0001,3.73728 -6.36551,5.54549 -10.42243,4.31712 2.00009,-3.73729 6.36549,-5.5455 10.42243,-4.31712 z m -14.2902,13.65471 c 3.73728,2.00009 5.54548,6.36551 4.31713,10.42243 -3.7373,-2.00008 -5.5455,-6.3655 -4.31713,-10.42243 z"
           inkscape:connector-curvature="0"
           style="stroke-width:0.41764274" />
        <path
           id="path562-6-3-5"
           d="m 84.642642,97.883996 c 0.42446,-0.17581 0.62787,-0.6669 0.45205,-1.09135 -2.18958,-5.28616 -8.18541,-7.86561 -13.49693,-5.84632 l -1.14591,-0.47467 c -1.41876,-0.58767 -2.89597,-0.87989 -4.37706,-0.85408 1.06552,-1.02904 1.90343,-2.28021 2.4911,-3.69897 l 0.47468,-1.14592 c 5.16765,-2.36652 7.5994,-8.391606 5.40978,-13.677752 -0.17581,-0.424452 -0.66691,-0.627882 -1.09135,-0.452066 -5.28617,2.189607 -7.86561,8.18542 -5.84632,13.496948 l -0.47467,1.14591 c -0.97193,2.34641 -2.82627,4.19943 -5.21853,5.19039 l -6.28937,2.60515 c -0.42445,0.17581 -0.62787,0.66691 -0.45206,1.09135 0.17581,0.42443 0.66691,0.62788 1.09137,0.45205 l 6.28937,-2.60516 c 2.3537,-0.97493 4.97521,-0.97586 7.3602,-0.0199 l 1.14594,0.47465 c 2.36654,5.16769 8.39158,7.599394 13.67776,5.40978 z M 73.204002,72.560493 c 1.22837,4.056937 -0.57984,8.422353 -4.31711,10.422443 -1.22838,-4.05695 0.57982,-8.422351 4.31711,-10.422443 z m -0.44936,19.760043 c 4.05693,-1.22839 8.42234,0.57984 10.42244,4.31709 -4.05694,1.2284 -8.42235,-0.57982 -10.42244,-4.31709 z"
           inkscape:connector-curvature="0"
           style="stroke-width:0.41764274" />
        <path
           id="path562-6-3-6"
           d="m 69.647086,67.003314 c 0.175819,-0.424449 -0.0276,-0.915539 -0.45205,-1.091339 -5.286161,-2.18962 -11.349791,0.226119 -13.677741,5.409789 l -1.145929,0.47464 c -1.418761,0.58767 -2.66994,1.42559 -3.69897,2.491121 0.0258,-1.48107 -0.26642,-2.958281 -0.85409,-4.37704 l -0.47464,-1.145931 c 1.980691,-5.327469 -0.56018,-11.307348 -5.846339,-13.49693 -0.424451,-0.17582 -0.915561,0.0276 -1.091361,0.452041 -2.1896,5.286169 0.226141,11.34979 5.40981,13.677759 l 0.47464,1.14593 c 0.971909,2.346411 0.970969,4.967911 -0.0199,7.360211 l -2.605139,6.28937 c -0.175812,0.424449 0.0276,0.91555 0.452049,1.091359 0.424431,0.1758 0.91555,-0.0276 1.091359,-0.45207 l 2.605131,-6.28938 c 0.974939,-2.353699 2.827969,-4.20804 5.190378,-5.218521 l 1.145929,-0.47467 c 5.327501,1.980709 11.30732,-0.560161 13.496931,-5.846341 z m -25.99476,-9.818079 c 3.737279,2.000099 5.54549,6.365509 4.31712,10.422429 -3.737289,-2.00009 -5.545501,-6.365489 -4.31712,-10.422429 z m 13.65471,14.2902 c 2.00009,-3.737281 6.36551,-5.54548 10.42243,-4.31713 -2.00008,3.7373 -6.365501,5.545499 -10.42243,4.31713 z"
           inkscape:connector-curvature="0"
           style="stroke-width:0.41764274" />
      </g>
    </g>
  </g>
</svg>
